<svg width="20" height="20" viewBox="0 0 20 20" fill="none" xmlns="http://www.w3.org/2000/svg">
<path d="M9.99996 3C11.2833 3 12.3333 4.05 12.3333 5.33333C12.3333 6.61666 11.2833 7.66666 9.99996 7.66666C8.71663 7.66666 7.66663 6.61666 7.66663 5.33333C7.66663 4.05 8.71663 3 9.99996 3ZM9.99996 14.6667C13.15 14.6667 16.7666 16.1717 17 17H2.99996C3.26829 16.16 6.86163 14.6667 9.99996 14.6667ZM9.99996 0.666664C7.42163 0.666664 5.33329 2.755 5.33329 5.33333C5.33329 7.91166 7.42163 10 9.99996 10C12.5783 10 14.6666 7.91166 14.6666 5.33333C14.6666 2.755 12.5783 0.666664 9.99996 0.666664ZM9.99996 12.3333C6.88496 12.3333 0.666626 13.8967 0.666626 17V19.3333H19.3333V17C19.3333 13.8967 13.115 12.3333 9.99996 12.3333Z" fill="#B4B4B4"/>
</svg>
