<svg width="24" height="24" viewBox="0 0 24 24" fill="none" xmlns="http://www.w3.org/2000/svg">
<path d="M7.16663 19C5.88329 19 4.84496 20.05 4.84496 21.3333C4.84496 22.6167 5.88329 23.6667 7.16663 23.6667C8.44996 23.6667 9.49996 22.6167 9.49996 21.3333C9.49996 20.05 8.44996 19 7.16663 19ZM18.8333 19C17.55 19 16.5116 20.05 16.5116 21.3333C16.5116 22.6167 17.55 23.6667 18.8333 23.6667C20.1166 23.6667 21.1666 22.6167 21.1666 21.3333C21.1666 20.05 20.1166 19 18.8333 19ZM17.1416 13.1667C18.0166 13.1667 18.7866 12.6883 19.1833 11.965L23.36 4.39334C23.7916 3.62334 23.2316 2.66667 22.345 2.66667H5.07829L3.98163 0.333336H0.166626V2.66667H2.49996L6.69996 11.5217L5.12496 14.3683C4.27329 15.9317 5.39329 17.8333 7.16663 17.8333H21.1666V15.5H7.16663L8.44996 13.1667H17.1416ZM6.18663 5H20.3616L17.1416 10.8333H8.95163L6.18663 5Z" fill="#B4B4B4"/>
</svg>
