<svg width="38" height="38" viewBox="0 0 38 38" fill="none" xmlns="http://www.w3.org/2000/svg">
<path d="M28.4286 10.4284H30.1429M8.71432 1.85693H29.2857C33.0728 1.85693 36.1429 4.92698 36.1429 8.71408V29.2855C36.1429 33.0726 33.0728 36.1426 29.2857 36.1426H8.71432C4.92722 36.1426 1.85718 33.0726 1.85718 29.2855V8.71408C1.85718 4.92698 4.92723 1.85693 8.71432 1.85693ZM19 25.8569C15.2129 25.8569 12.1429 22.7869 12.1429 18.9998C12.1429 15.2127 15.2129 12.1426 19 12.1426C22.7871 12.1426 25.8572 15.2127 25.8572 18.9998C25.8572 22.7869 22.7871 25.8569 19 25.8569Z" stroke="#ECF3ED" stroke-width="2"/>
</svg>
