<svg width="26" height="26" viewBox="0 0 26 26" fill="none" xmlns="http://www.w3.org/2000/svg">
<path d="M19.2857 7.28572H20.4286M6.14284 1.57143H19.8571C22.3819 1.57143 24.4286 3.61813 24.4286 6.14286V19.8571C24.4286 22.3819 22.3819 24.4286 19.8571 24.4286H6.14284C3.61811 24.4286 1.57141 22.3819 1.57141 19.8571V6.14286C1.57141 3.61813 3.61811 1.57143 6.14284 1.57143ZM13 17.5714C10.4753 17.5714 8.42855 15.5247 8.42855 13C8.42855 10.4753 10.4753 8.42857 13 8.42857C15.5247 8.42857 17.5714 10.4753 17.5714 13C17.5714 15.5247 15.5247 17.5714 13 17.5714Z" stroke="#B4B4B4" stroke-width="2"/>
</svg>
