<svg width="110" height="90" viewBox="0 0 110 90" fill="none" xmlns="http://www.w3.org/2000/svg">
<g clip-path="url(#clip0_1_377)">
<path d="M109.049 59.29C108.488 62.3158 103.658 61.8721 101.746 65.6787C99.833 69.4852 93.3128 69.6006 82.3092 70.4968C71.3056 71.393 56.3525 81.2599 56.3525 90.0176C56.3525 90.0176 64.5007 78.1188 78.6532 78.2696C92.8057 78.4205 85.5649 87.6663 85.5649 87.6663C99.5573 90.3903 97.1289 77.338 97.1289 77.338C115 78.0833 109.049 59.29 109.049 59.29ZM105.49 71.6059C104.147 73.3805 101.71 74.3388 98.2408 74.3388C97.9383 74.3388 97.6359 74.3388 97.3512 74.3388L93.5529 74.1702L94.2468 77.9058C94.4158 78.9174 94.5759 81.9608 93.1704 83.629C92.4172 84.445 91.3723 84.9326 90.2616 84.9866C90.728 83.3299 90.586 81.5615 89.8614 79.9999C87.6108 75.3326 80.966 75.2705 78.7599 75.2439H78.4842C77.2944 75.2436 76.1058 75.3207 74.9261 75.4746C77.3924 74.4479 79.9971 73.7901 82.6561 73.5225L85.7161 73.2829C95.9102 72.4932 102.066 72.0141 104.556 67.0718C105.001 66.1844 105.811 65.7053 107.065 65.0842C107.056 67.3291 106.745 69.8402 105.455 71.6059H105.49Z" fill="#B4B4B4"/>
<path d="M27.7001 70.4968C16.6877 69.6095 10.1674 69.4941 8.25489 65.6787C6.34239 61.8632 1.51221 62.3158 0.951804 59.29C0.951804 59.29 -4.99919 78.1188 12.8627 77.338C12.8627 77.338 10.452 90.3903 24.4267 87.6663C24.4267 87.6663 17.1858 78.3939 31.3383 78.2519C45.4909 78.1099 53.6479 89.9999 53.6479 89.9999C53.6568 81.2599 38.7126 71.393 27.7001 70.4968ZM31.6052 75.2262H31.3206C29.1323 75.2262 22.4697 75.3149 20.2191 79.9821C19.5028 81.5459 19.3611 83.3113 19.8189 84.9688C18.7055 84.9153 17.6578 84.4278 16.9012 83.6112C15.4957 81.9431 15.6558 78.8996 15.8337 77.8881L16.5187 74.1525L12.7204 74.3211C12.4001 74.3211 12.0977 74.3211 11.8308 74.3211C8.35274 74.3211 5.91541 73.4338 4.57221 71.5882C3.22902 69.7426 2.97105 67.3113 3.07779 65.0221C4.32314 65.6432 5.13262 66.1223 5.57739 67.0096C8.06809 71.9786 14.2237 72.4577 24.4178 73.2208L27.4778 73.4604C30.1281 73.7334 32.7237 74.3942 35.1811 75.4214C33.9947 75.2784 32.8002 75.2132 31.6052 75.2262Z" fill="#B4B4B4"/>
<path d="M50.1701 63.6646C50.1701 63.6646 32.1925 76.087 21.0645 62.378C21.0645 62.378 36.9071 65.1198 38.8552 57.7196C38.8552 57.7196 25.6011 56.8323 25.1474 43.3718C25.1474 43.3718 30.2089 50.3283 37.1739 49.0949C37.1739 49.0949 28.2786 42.8128 30.7693 30.4614C30.7693 30.4614 35.3771 39.0861 36.7203 38.0834C38.0635 37.0807 36.2399 28.5803 38.8285 25.8917C41.417 23.2032 46.9499 20.5679 47.3947 16.7879C47.8395 13.008 49.752 24.6318 45.2598 29.0062C40.7677 33.3807 46.0515 29.0062 50.9884 26.2023C55.9254 23.3984 66.2173 20.5945 68.8592 13.425C70.7984 8.07453 70.0601 3.02573 64.6606 0C64.6606 0 79.7204 5.15528 78.0036 18.8287C78.0036 18.8287 76.3135 29.5918 66.3151 30.2662C56.3168 30.9405 48.222 32.165 46.7454 38.669C45.2687 45.173 46.6831 51.4641 52.7497 54.9157C58.8164 58.3673 64.7762 54.472 64.5539 50.3283C64.3315 46.1846 62.5257 45.2529 61.3782 45.5013C60.2307 45.7498 57.2508 50.5768 56.3523 50.772C55.4539 50.9672 56.6904 46.6282 57.1351 45.3949C57.5799 44.1615 55.2226 41.4729 56.3523 40.9583C56.74 40.7784 57.0545 40.4719 57.2437 40.0895C57.433 39.7071 57.4857 39.2717 57.3931 38.8554C56.9394 38.0657 54.6355 36.7524 54.6355 36.7524L60.0617 34.4632L59.8304 37.9237C59.8304 37.9237 68.6012 40.7276 70.3981 47.3469C72.195 53.9663 69.2684 67.8083 60.1684 66.5484C51.0685 65.2884 50.1701 63.6646 50.1701 63.6646Z" fill="#B4B4B4"/>
<path d="M72.8085 55.0845C72.8085 55.0845 73.1465 62.041 68.1473 66.0694C68.1473 66.0694 84.8884 69.4944 91.1241 57.6665C91.1241 57.6754 77.87 62.4846 72.8085 55.0845Z" fill="#B4B4B4"/>
<path d="M50.49 77.8439C50.748 79.4588 45.5442 76.158 44.032 74.2946C43.1157 73.124 42.6039 71.689 42.5732 70.2041C42.5732 70.2041 48.0438 70.6034 49.3248 73.1234C49.3248 73.1234 46.5583 72.449 45.3841 72.0586C44.2099 71.6682 50.0987 75.4215 50.49 77.8439Z" fill="#B4B4B4"/>
<path d="M59.5989 77.8439C59.3409 79.4588 64.5447 76.158 66.0658 74.2946C66.9777 73.1216 67.4889 71.688 67.5247 70.2041C67.5247 70.2041 62.054 70.6034 60.7731 73.1234C60.7731 73.1234 63.5395 72.449 64.7137 72.0586C65.8879 71.6682 59.9903 75.4215 59.5989 77.8439Z" fill="#B4B4B4"/>
<path d="M55.0441 73.0791C53.4162 73.0791 52.0908 75.8298 52.0908 79.2104C52.0908 82.5911 53.4162 85.3506 55.0441 85.3506C56.6719 85.3506 57.9884 82.5999 57.9884 79.2104C57.9884 75.8209 56.6719 73.0791 55.0441 73.0791ZM55.0441 82.3426C54.5104 82.3426 54.0745 80.9407 54.0745 79.2104C54.0745 77.4802 54.5104 76.0871 55.0441 76.0871C55.5778 76.0871 56.0404 77.489 56.0404 79.2104C56.0404 80.9318 55.5778 82.3426 55.0441 82.3426Z" fill="#B4B4B4"/>
</g>
<defs>
<clipPath id="clip0_1_377">
<rect width="110" height="90" fill="white"/>
</clipPath>
</defs>
</svg>
