<svg width="82" height="68" viewBox="0 0 82 68" fill="none" xmlns="http://www.w3.org/2000/svg">
<g clip-path="url(#clip0_1_69)">
<path d="M81.2905 44.797C80.8727 47.0831 77.272 46.7479 75.8464 49.624C74.4207 52.5 69.5601 52.5872 61.3574 53.2643C53.1548 53.9414 42.0079 61.3964 42.0079 68.0134C42.0079 68.0134 48.082 59.0232 58.6321 59.1371C69.1821 59.2511 63.7844 66.2368 63.7844 66.2368C74.2151 68.295 72.4048 58.4332 72.4048 58.4332C85.7267 58.9964 81.2905 44.797 81.2905 44.797ZM78.6381 54.1023C77.6368 55.4432 75.8198 56.1672 73.2337 56.1672C73.0083 56.1672 72.7828 56.1672 72.5706 56.1672L69.7391 56.0398L70.2564 58.8623C70.3823 59.6265 70.5017 61.9261 69.454 63.1864C68.8925 63.803 68.1136 64.1714 67.2856 64.2122C67.6333 62.9604 67.5275 61.6243 66.9872 60.4444C65.3096 56.9181 60.3561 56.8711 58.7116 56.851H58.5061C57.6191 56.8508 56.7331 56.909 55.8536 57.0253C57.6922 56.2496 59.6339 55.7526 61.6161 55.5504L63.8971 55.3694C71.4964 54.7727 76.0851 54.4107 77.9418 50.6765C78.2733 50.0061 78.8768 49.6441 79.8118 49.1748C79.8051 50.8709 79.573 52.7682 78.6115 54.1023H78.6381Z" fill="#25AF38"/>
<path d="M20.6492 53.2643C12.4399 52.5939 7.57935 52.5068 6.15367 49.624C4.72799 46.7412 1.12731 47.0831 0.70955 44.797C0.70955 44.797 -3.72665 59.0232 9.58857 58.4332C9.58857 58.4332 7.79155 68.295 18.209 66.2368C18.209 66.2368 12.8113 59.231 23.3613 59.1237C33.9114 59.0165 39.9921 68 39.9921 68C39.9987 61.3964 28.8585 53.9414 20.6492 53.2643ZM23.5603 56.8376H23.3481C21.7168 56.8376 16.7501 56.9047 15.0725 60.431C14.5385 61.6125 14.4328 62.9464 14.7741 64.1988C13.9441 64.1583 13.1631 63.7899 12.5991 63.173C11.5514 61.9127 11.6707 59.6131 11.8034 58.8489L12.3139 56.0264L9.48248 56.1538C9.24376 56.1538 9.0183 56.1538 8.81937 56.1538C6.22661 56.1538 4.4097 55.4834 3.4084 54.0889C2.40711 52.6945 2.21481 50.8575 2.29438 49.1279C3.22273 49.5972 3.82616 49.9592 4.15771 50.6296C6.01442 54.3839 10.6031 54.7459 18.2024 55.3225L20.4834 55.5035C22.4592 55.7098 24.3941 56.209 26.226 56.9851C25.3415 56.8771 24.4511 56.8278 23.5603 56.8376Z" fill="#25AF38"/>
<path d="M37.3991 48.1021C37.3991 48.1021 23.9976 57.4879 15.7021 47.13C15.7021 47.13 27.5121 49.2016 28.9643 43.6104C28.9643 43.6104 19.084 42.94 18.7458 32.7698C18.7458 32.7698 22.5189 38.0258 27.711 37.094C27.711 37.094 21.08 32.3474 22.9367 23.0153C22.9367 23.0153 26.3716 29.5317 27.3729 28.7741C28.3742 28.0166 27.0148 21.594 28.9444 19.5627C30.8741 17.5313 34.9986 15.5402 35.3302 12.6842C35.6617 9.82826 37.0874 18.6107 33.7387 21.9158C30.39 25.2209 34.3289 21.9158 38.0091 19.7973C41.6894 17.6788 49.3615 15.5603 51.331 10.1433C52.7766 6.10076 52.2262 2.28611 48.2011 0C48.2011 0 59.4275 3.8951 58.1477 14.2262C58.1477 14.2262 56.8878 22.3583 49.4345 22.8678C41.9811 23.3773 35.9469 24.3025 34.8461 29.2166C33.7453 34.1307 34.7997 38.884 39.3221 41.4919C43.8445 44.0998 48.2873 41.1567 48.1215 38.0258C47.9557 34.895 46.6096 34.1911 45.7542 34.3788C44.8988 34.5665 42.6774 38.2135 42.0077 38.361C41.3379 38.5085 42.2596 35.2302 42.5912 34.2983C42.9228 33.3665 41.1655 31.3351 42.0077 30.9463C42.2966 30.8104 42.5311 30.5788 42.6721 30.2899C42.8132 30.0009 42.8525 29.672 42.7835 29.3574C42.4453 28.7607 40.7279 27.7685 40.7279 27.7685L44.7728 26.0388L44.6004 28.6535C44.6004 28.6535 51.1387 30.772 52.4781 35.7732C53.8176 40.7745 51.636 51.233 44.8524 50.281C38.0688 49.329 37.3991 48.1021 37.3991 48.1021Z" fill="#F4CB1F"/>
<path d="M54.2754 41.6192C54.2754 41.6192 54.5274 46.8753 50.8007 49.919C50.8007 49.919 63.2804 52.5068 67.9288 43.5701C67.9288 43.5769 58.0485 47.2105 54.2754 41.6192Z" fill="#F4CB1F"/>
<path d="M37.6381 58.8153C37.8304 60.0355 33.9512 57.5416 32.8239 56.1337C32.1408 55.2493 31.7593 54.165 31.7364 53.0431C31.7364 53.0431 35.8145 53.3448 36.7694 55.2488C36.7694 55.2488 34.7071 54.7392 33.8318 54.4443C32.9565 54.1493 37.3463 56.9851 37.6381 58.8153Z" fill="#25AF38"/>
<path d="M44.4278 58.8153C44.2355 60.0355 48.1147 57.5416 49.2486 56.1337C49.9283 55.2474 50.3095 54.1643 50.3361 53.0431C50.3361 53.0431 46.258 53.3448 45.3031 55.2488C45.3031 55.2488 47.3654 54.7392 48.2407 54.4443C49.116 54.1493 44.7196 56.9851 44.4278 58.8153Z" fill="#25AF38"/>
<path d="M41.0336 55.2152C39.8201 55.2152 38.832 57.2935 38.832 59.8478C38.832 62.4021 39.8201 64.487 41.0336 64.487C42.247 64.487 43.2284 62.4088 43.2284 59.8478C43.2284 57.2868 42.247 55.2152 41.0336 55.2152ZM41.0336 62.2143C40.6357 62.2143 40.3108 61.1551 40.3108 59.8478C40.3108 58.5405 40.6357 57.4879 41.0336 57.4879C41.4314 57.4879 41.7762 58.5472 41.7762 59.8478C41.7762 61.1484 41.4314 62.2143 41.0336 62.2143Z" fill="#25AF38"/>
</g>
<defs>
<clipPath id="clip0_1_69">
<rect width="82" height="68" fill="white"/>
</clipPath>
</defs>
</svg>
