<svg width="38" height="38" viewBox="0 0 38 38" fill="none" xmlns="http://www.w3.org/2000/svg">
<path d="M5.28526 29.2865L6.17969 29.7337L6.45632 29.1804L6.08478 28.6859L5.28526 29.2865ZM8.71334 32.7146L9.31397 31.9151L8.8194 31.5435L8.26612 31.8202L8.71334 32.7146ZM1.85718 36.1427L0.96275 35.6954C0.770256 36.0804 0.845711 36.5454 1.15007 36.8498C1.45443 37.1541 1.9194 37.2296 2.30439 37.0371L1.85718 36.1427ZM12.1429 12.1427L11.5429 11.3427C11.2911 11.5315 11.1429 11.8279 11.1429 12.1427H12.1429ZM25.8572 25.857V26.857C26.1522 26.857 26.4321 26.7267 26.6221 26.5011L25.8572 25.857ZM13.2082 11.3437L12.6082 10.5437L13.2082 11.3437ZM15.9379 12.5025L16.9301 12.3784L15.9379 12.5025ZM16.3246 15.5964L17.3169 15.4724L16.3246 15.5964ZM15.8357 17.0212L15.1286 16.3141V16.3141L15.8357 17.0212ZM26.6171 24.9545L27.382 25.5986H27.382L26.6171 24.9545ZM25.5541 22.1541L25.4093 23.1435L25.5541 22.1541ZM22.4232 21.6959L22.568 20.7064L22.4232 21.6959ZM20.9628 22.1799L21.6699 22.887L20.9628 22.1799ZM0.857199 18.9998C0.857199 23.0835 2.20757 26.8546 4.48573 29.8871L6.08478 28.6859C4.05789 25.9878 2.8572 22.6355 2.8572 18.9998H0.857199ZM19.0001 0.856934C8.98003 0.856934 0.857199 8.97977 0.857199 18.9998H2.8572C2.8572 10.0843 10.0846 2.85693 19.0001 2.85693V0.856934ZM37.1429 18.9998C37.1429 8.97977 29.0201 0.856934 19.0001 0.856934V2.85693C27.9155 2.85693 35.1429 10.0843 35.1429 18.9998H37.1429ZM19.0001 37.1426C29.0201 37.1426 37.1429 29.0198 37.1429 18.9998H35.1429C35.1429 27.9152 27.9155 35.1426 19.0001 35.1426V37.1426ZM8.1127 33.5141C11.1452 35.7923 14.9164 37.1426 19.0001 37.1426V35.1426C15.3644 35.1426 12.012 33.942 9.31397 31.9151L8.1127 33.5141ZM2.30439 37.0371L9.16055 33.609L8.26612 31.8202L1.40996 35.2482L2.30439 37.0371ZM4.39083 28.8393L0.96275 35.6954L2.75161 36.5899L6.17969 29.7337L4.39083 28.8393ZM11.1429 12.1427V13.857H13.1429V12.1427H11.1429ZM24.1429 26.857H25.8572V24.857H24.1429V26.857ZM11.1429 13.857C11.1429 21.0367 16.9632 26.857 24.1429 26.857V24.857C18.0678 24.857 13.1429 19.9321 13.1429 13.857H11.1429ZM12.7429 12.9427L13.8082 12.1437L12.6082 10.5437L11.5429 11.3427L12.7429 12.9427ZM14.9456 12.6265L15.3323 15.7205L17.3169 15.4724L16.9301 12.3784L14.9456 12.6265ZM15.1286 16.3141L13.1501 18.2927L14.5643 19.7069L16.5429 17.7283L15.1286 16.3141ZM15.3323 15.7205C15.3597 15.9392 15.2845 16.1583 15.1286 16.3141L16.5429 17.7283C17.1351 17.1361 17.4208 16.3035 17.3169 15.4724L15.3323 15.7205ZM13.8082 12.1437C14.247 11.8146 14.8776 12.0823 14.9456 12.6265L16.9301 12.3784C16.6716 10.3104 14.2755 9.2932 12.6082 10.5437L13.8082 12.1437ZM26.6221 26.5011L27.382 25.5986L25.8522 24.3104L25.0923 25.2128L26.6221 26.5011ZM25.6989 21.1646L22.568 20.7064L22.2784 22.6853L25.4093 23.1435L25.6989 21.1646ZM20.2557 21.4728L18.2929 23.4356L19.7071 24.8498L21.6699 22.887L20.2557 21.4728ZM22.568 20.7064C21.7194 20.5822 20.8621 20.8664 20.2557 21.4728L21.6699 22.887C21.8295 22.7274 22.0551 22.6527 22.2784 22.6853L22.568 20.7064ZM27.382 25.5986C28.7521 23.9717 27.8035 21.4726 25.6989 21.1646L25.4093 23.1435C25.9631 23.2246 26.2128 23.8822 25.8522 24.3104L27.382 25.5986Z" fill="#ECF3ED"/>
</svg>
