<svg width="26" height="26" viewBox="0 0 26 26" fill="none" xmlns="http://www.w3.org/2000/svg">
<path d="M3.8568 19.8578L4.75123 20.305L5.02786 19.7517L4.65632 19.2572L3.8568 19.8578ZM6.14218 22.1432L6.74282 21.3437L6.24825 20.9721L5.69497 21.2488L6.14218 22.1432ZM1.57141 24.4286L0.676984 23.9814C0.48449 24.3664 0.559944 24.8313 0.864304 25.1357C1.16866 25.44 1.63364 25.5155 2.01862 25.323L1.57141 24.4286ZM8.42855 8.42859L7.82855 7.62859C7.57675 7.81744 7.42855 8.11383 7.42855 8.42859H8.42855ZM17.5714 17.5714V18.5714C17.8664 18.5714 18.1463 18.4412 18.3363 18.2156L17.5714 17.5714ZM9.13879 7.89591L8.53879 7.09591L9.13879 7.89591ZM10.9585 8.66844L11.9508 8.54441L10.9585 8.66844ZM11.2164 10.7311L12.2086 10.6071L11.2164 10.7311ZM10.8905 11.681L10.1834 10.9739L10.8905 11.681ZM18.078 16.9698L18.843 17.614L18.843 17.614L18.078 16.9698ZM17.3693 15.1028L17.2245 16.0923L17.3693 15.1028ZM15.2821 14.7974L15.4269 13.8079L15.2821 14.7974ZM14.3085 15.1201L15.0156 15.8272L15.0156 15.8272L14.3085 15.1201ZM0.571425 13C0.571425 15.7971 1.49662 18.381 3.05727 20.4584L4.65632 19.2572C3.34694 17.5142 2.57143 15.3491 2.57143 13H0.571425ZM13 0.57143C6.13589 0.57143 0.571425 6.13589 0.571425 13H2.57143C2.57143 7.24046 7.24046 2.57143 13 2.57143V0.57143ZM25.4286 13C25.4286 6.13589 19.8641 0.57143 13 0.57143V2.57143C18.7595 2.57143 23.4286 7.24046 23.4286 13H25.4286ZM13 25.4286C19.8641 25.4286 25.4286 19.8641 25.4286 13H23.4286C23.4286 18.7595 18.7595 23.4286 13 23.4286V25.4286ZM5.54155 22.9427C7.61898 24.5034 10.2029 25.4286 13 25.4286V23.4286C10.6509 23.4286 8.48578 22.6531 6.74282 21.3437L5.54155 22.9427ZM2.01862 25.323L6.5894 23.0376L5.69497 21.2488L1.1242 23.5342L2.01862 25.323ZM2.96237 19.4106L0.676984 23.9814L2.46584 24.8758L4.75123 20.305L2.96237 19.4106ZM7.42855 8.42859V9.57144H9.42855V8.42859H7.42855ZM16.4286 18.5714H17.5714V16.5714H16.4286V18.5714ZM7.42855 9.57144C7.42855 14.542 11.458 18.5714 16.4286 18.5714V16.5714C12.5626 16.5714 9.42855 13.4374 9.42855 9.57144H7.42855ZM9.02855 9.22859L9.73879 8.69591L8.53879 7.09591L7.82855 7.62859L9.02855 9.22859ZM9.96626 8.79248L10.2241 10.8551L12.2086 10.6071L11.9508 8.54441L9.96626 8.79248ZM10.1834 10.9739L8.8643 12.2929L10.2785 13.7071L11.5976 12.3881L10.1834 10.9739ZM10.2241 10.8551C10.2296 10.8989 10.2145 10.9427 10.1834 10.9739L11.5976 12.3881C12.0651 11.9205 12.2907 11.2632 12.2086 10.6071L10.2241 10.8551ZM9.73879 8.69591C9.82654 8.6301 9.95265 8.68363 9.96626 8.79248L11.9508 8.54441C11.7467 6.91178 9.85506 6.10871 8.53879 7.09591L9.73879 8.69591ZM18.3363 18.2156L18.843 17.614L17.3131 16.3257L16.8065 16.9273L18.3363 18.2156ZM17.5141 14.1134L15.4269 13.8079L15.1373 15.7869L17.2245 16.0923L17.5141 14.1134ZM13.6014 14.413L12.2929 15.7215L13.7071 17.1357L15.0156 15.8272L13.6014 14.413ZM15.4269 13.8079C14.757 13.7099 14.0801 13.9342 13.6014 14.413L15.0156 15.8272C15.0475 15.7953 15.0926 15.7803 15.1373 15.7869L15.4269 13.8079ZM18.843 17.614C19.9246 16.3295 19.1757 14.3565 17.5141 14.1134L17.2245 16.0923C17.3353 16.1085 17.3852 16.2401 17.3131 16.3257L18.843 17.614Z" fill="#B4B4B4"/>
</svg>
